# xmcd
#
# Track frame offsets:
#	150
#	10120
#	25859
#	38661
#	55186
#	69055
#	83475
#	94814
#	109464
#	121636
#
# Disc length: 1866 seconds
#
# Revision: 0
# Processed by: cddbd v1.5.2PL0 Copyright (c) Steve Scherf et al.
# Submitted via: EasyCDDAExtractor 15.3.0.1
#
DISCID=6a07480a
DTITLE=Shane Barmby - Jukebox Symphony
DYEAR=1991
DGENRE=Country
TTITLE0=One Night
TTITLE1=She Won't Be Lonely For Long
TTITLE2=When Was The Last Time
TTITLE3=One And One And One
TTITLE4=Hard Headed And Broken Hearted
TTITLE5=Remember The Ride
TTITLE6=Jukebox Symphony
TTITLE7=Missing Her Is Easier This Way
TTITLE8=This Tear's On Me
TTITLE9=A Cowboy Callin'
EXTD=
EXTT0=
EXTT1=
EXTT2=
EXTT3=
EXTT4=
EXTT5=
EXTT6=
EXTT7=
EXTT8=
EXTT9=
PLAYORDER=
